<svg width="26" height="26" viewBox="0 0 26 26" fill="none" xmlns="http://www.w3.org/2000/svg">
<path d="M7 23C6.45 23 5.97933 22.8043 5.588 22.413C5.19667 22.0217 5.00067 21.5507 5 21V11C5 10.45 5.196 9.97933 5.588 9.588C5.98 9.19667 6.45067 9.00067 7 9H8V7C8 5.61667 8.48767 4.43767 9.463 3.463C10.4383 2.48833 11.6173 2.00067 13 2C14.3827 1.99933 15.562 2.487 16.538 3.463C17.514 4.439 18.0013 5.618 18 7V9H19C19.55 9 20.021 9.196 20.413 9.588C20.805 9.98 21.0007 10.4507 21 11V21C21 21.55 20.8043 22.021 20.413 22.413C20.0217 22.805 19.5507 23.0007 19 23H7ZM7 21H19V11H7V21ZM13 18C13.55 18 14.021 17.8043 14.413 17.413C14.805 17.0217 15.0007 16.5507 15 16C14.9993 15.4493 14.8037 14.9787 14.413 14.588C14.0223 14.1973 13.5513 14.0013 13 14C12.4487 13.9987 11.978 14.1947 11.588 14.588C11.198 14.9813 11.002 15.452 11 16C10.998 16.548 11.194 17.019 11.588 17.413C11.982 17.807 12.4527 18.0027 13 18ZM10 9H16V7C16 6.16667 15.7083 5.45833 15.125 4.875C14.5417 4.29167 13.8333 4 13 4C12.1667 4 11.4583 4.29167 10.875 4.875C10.2917 5.45833 10 6.16667 10 7V9Z" fill="#39444B"/>
</svg>
